<svg width="18" height="18" viewBox="0 0 18 18" fill="none" xmlns="http://www.w3.org/2000/svg">
<path d="M9 0C4.02944 0 0 4.02944 0 9C0 13.9706 4.02944 18 9 18C13.9706 18 18 13.9706 18 9C17.9947 4.03166 13.9684 0.00531111 9 0ZM13.9545 6.24022L7.52592 12.6688C7.27487 12.9198 6.86795 12.9198 6.61693 12.6688L4.04549 10.0974C3.7901 9.85072 3.78302 9.44376 4.02966 9.18838C4.27631 8.93299 4.68327 8.92591 4.93866 9.17255C4.94401 9.17775 4.94928 9.18299 4.95448 9.18838L7.07143 11.3053L13.0455 5.33123C13.3009 5.08458 13.7079 5.09166 13.9545 5.34701C14.1951 5.59614 14.1951 5.99109 13.9545 6.24022Z" fill="#3F64FA"/>
</svg>
